<svg width="57" height="31" viewBox="0 0 57 31" fill="none" xmlns="http://www.w3.org/2000/svg">
<path d="M14.8579 1.9375V3.02008C19.0657 3.71697 22.2868 7.51992 22.2868 12.1094V14.1316C22.2868 16.8805 23.1864 19.5506 24.8289 21.7L25.6937 22.8262C26.0303 23.2621 26.0942 23.8615 25.862 24.3641C25.6299 24.8666 25.1423 25.1875 24.6084 25.1875H1.39294C0.857241 25.1875 0.369426 24.8666 0.137504 24.3641C-0.0944762 23.8615 -0.0292408 23.2621 0.305294 22.8262L1.17065 21.7C2.8172 19.5506 3.71448 16.8805 3.71448 14.1316V12.1094C3.71448 7.51992 6.93562 3.71697 11.1434 3.02008V1.9375C11.1434 0.867637 11.9734 0 13.0007 0C14.0279 0 14.8579 0.867637 14.8579 1.9375ZM12.5363 5.8125C9.20493 5.8125 6.50033 8.63398 6.50033 12.1094V14.1316C6.50033 17.0318 5.69476 19.8594 4.19678 22.2812H21.8051C20.3077 19.8594 19.501 17.0318 19.501 14.1316V12.1094C19.501 8.63398 16.7964 5.8125 13.465 5.8125H12.5363ZM16.7151 27.125C16.7151 28.0998 16.3263 29.1412 15.6298 29.8678C14.9333 30.5943 13.9351 31 13.0007 31C12.014 31 11.068 30.5943 10.3715 29.8678C9.67504 29.1412 9.28618 28.0998 9.28618 27.125H16.7151Z" fill="#E64980"/>
<path d="M33.348 7.7V21.714C33.348 21.89 33.26 21.978 33.084 21.978H31.126C30.95 21.978 30.862 21.89 30.862 21.714V7.7H26.594C26.5207 7.7 26.4547 7.678 26.396 7.634C26.352 7.57533 26.33 7.502 26.33 7.414V5.654C26.33 5.58067 26.352 5.522 26.396 5.478C26.4547 5.41933 26.5207 5.39 26.594 5.39H37.638C37.7113 5.39 37.77 5.41933 37.814 5.478C37.8727 5.522 37.902 5.58067 37.902 5.654V7.414C37.902 7.60467 37.814 7.7 37.638 7.7H33.348ZM39.8363 23.122C39.7629 23.122 39.6969 23.0927 39.6383 23.034C39.5943 22.99 39.5723 22.9313 39.5723 22.858V11.264C39.5723 11.1907 39.5943 11.132 39.6383 11.088C39.6969 11.0293 39.7629 11 39.8363 11H41.6843C41.7576 11 41.8163 11.0293 41.8603 11.088C41.9189 11.132 41.9483 11.1907 41.9483 11.264V22.858C41.9483 22.9313 41.9189 22.99 41.8603 23.034C41.8163 23.0927 41.7576 23.122 41.6843 23.122H39.8363ZM40.7823 8.602C40.3569 8.602 39.9976 8.46267 39.7043 8.184C39.4256 7.89067 39.2863 7.53867 39.2863 7.128C39.2863 6.70267 39.4256 6.34333 39.7043 6.05C39.9976 5.75667 40.3569 5.61 40.7823 5.61C41.2076 5.61 41.5669 5.75667 41.8603 6.05C42.1536 6.34333 42.3003 6.70267 42.3003 7.128C42.3003 7.53867 42.1536 7.89067 41.8603 8.184C41.5669 8.46267 41.2076 8.602 40.7823 8.602ZM50.4004 22.506C49.8137 22.506 49.2491 22.3813 48.7064 22.132C48.1637 21.8827 47.7091 21.5453 47.3424 21.12V25.036C47.3424 25.1533 47.3277 25.2267 47.2984 25.256C47.2691 25.3 47.2031 25.322 47.1004 25.322H45.2744C45.1864 25.322 45.1204 25.3 45.0764 25.256C45.0324 25.2267 45.0104 25.1533 45.0104 25.036V10.12C45.0104 9.88533 45.1204 9.768 45.3404 9.768H47.0344C47.2397 9.768 47.3424 9.88533 47.3424 10.12V10.912C47.7531 10.4867 48.2151 10.1567 48.7284 9.922C49.2417 9.68733 49.7991 9.57 50.4004 9.57C51.1924 9.57 51.8964 9.724 52.5124 10.032C53.1431 10.3253 53.6711 10.7507 54.0964 11.308C54.5364 11.8653 54.8664 12.5473 55.0864 13.354C55.3211 14.1607 55.4384 15.07 55.4384 16.082C55.4384 17.0647 55.3211 17.952 55.0864 18.744C54.8517 19.536 54.5144 20.2107 54.0744 20.768C53.6491 21.3253 53.1211 21.7507 52.4904 22.044C51.8744 22.352 51.1777 22.506 50.4004 22.506ZM50.1584 11.814C49.7771 11.814 49.4177 11.9093 49.0804 12.1C48.7431 12.276 48.4424 12.5473 48.1784 12.914C47.9291 13.266 47.7237 13.706 47.5624 14.234C47.4157 14.762 47.3424 15.3707 47.3424 16.06C47.3424 17.4973 47.5991 18.5607 48.1124 19.25C48.6257 19.9393 49.3077 20.284 50.1584 20.284C51.0677 20.284 51.7644 19.9173 52.2484 19.184C52.7324 18.4507 52.9744 17.4093 52.9744 16.06C52.9744 14.6373 52.7251 13.574 52.2264 12.87C51.7277 12.166 51.0384 11.814 50.1584 11.814Z" fill="#E64980"/>
</svg>
