<svg width="20" height="20" viewBox="0 0 20 20" fill="none" xmlns="http://www.w3.org/2000/svg">
<path d="M3.75 7.1021H1.25C0.559766 7.1021 0 7.74186 0 8.49056V18.4508C0 19.2397 0.559766 19.8393 1.25 19.8393H3.75C4.44023 19.8393 5 19.1995 5 18.4508V8.53074C5 7.7807 4.44141 7.1021 3.75 7.1021ZM20 8.70485C20 7.0579 18.8262 5.71722 17.384 5.71722H13.4832C13.8555 4.60199 14.0625 3.63766 14.0625 3.07067C14.0625 1.56168 13.0391 0 11.3258 0C9.50508 0 9.00703 1.44828 8.60664 2.61172C7.36992 6.20563 6.25 5.5757 6.25 6.78468C6.25 7.35792 6.65469 7.85571 7.18828 7.85571C7.39359 7.85571 7.60039 7.77887 7.77305 7.62088C10.7715 4.88102 10.0375 2.14295 11.3258 2.14295C11.9539 2.14295 12.1875 2.71217 12.1875 3.07112C12.1875 3.40167 11.8909 4.83682 11.1895 6.26724C11.1095 6.43002 11.0697 6.61038 11.0697 6.79048C11.0697 7.41194 11.5162 7.82178 12.0072 7.82178H17.3822C17.793 7.86106 18.125 8.24055 18.125 8.70485C18.125 9.14277 17.8216 9.5098 17.4348 9.54016C16.9402 9.57852 16.5613 10.0491 16.5613 10.609C16.5613 11.2996 17.0062 11.321 17.0062 11.8996C17.0062 13.0323 15.6379 12.4506 15.6379 13.7814C15.6379 14.2823 15.8876 14.3631 15.8876 14.7748C15.8876 15.7864 14.7247 15.3891 14.7247 16.5891C14.7247 16.7907 14.768 16.8553 14.768 17.0113C14.768 17.4778 14.4354 17.8573 14.027 17.8573H11.9751C10.9743 17.8573 9.98211 17.4794 9.18211 16.7943L7.75008 15.5661C7.58152 15.4213 7.38406 15.3514 7.18836 15.3514C6.64734 15.3514 6.24969 15.8594 6.24969 16.4246C6.24969 16.7499 6.37906 17.0684 6.62453 17.2787L8.05695 18.5073C9.17969 19.4687 10.5703 20 11.9766 20H14.0285C15.4086 20 16.5426 18.7727 16.6379 17.2231C17.332 16.6771 17.7641 15.7717 17.7641 14.7752C17.7641 14.6392 17.7555 14.5026 17.739 14.368C18.4359 13.8255 18.8828 12.9134 18.8828 11.9C18.8828 11.6629 18.8578 11.4294 18.8095 11.2017C19.5273 10.629 20 9.74061 20 8.70485Z" fill="black"/>
</svg>
