<svg width="20" height="20" viewBox="0 0 20 20" fill="none" xmlns="http://www.w3.org/2000/svg">
<path d="M12.2422 0.0419604C13.2578 0.274083 13.918 1.40345 13.7148 2.56406L13.625 3.07294C13.418 4.2648 13.0352 5.39862 12.5 6.42978H18.125C19.1602 6.42978 20 7.38952 20 8.57245C20 9.70181 19.2383 10.6258 18.2695 10.7107C18.5703 11.0901 18.75 11.5945 18.75 12.1436C18.75 13.1881 18.0938 14.0586 17.2305 14.246C17.4023 14.5675 17.5 14.9513 17.5 15.3576C17.5 16.3084 16.957 17.1163 16.207 17.3931C16.2344 17.5404 16.25 17.6966 16.25 17.8573C16.25 19.0403 15.4102 20 14.375 20H11.5039C10.7617 20 10.0391 19.75 9.42188 19.2813L7.91797 18.1341C6.875 17.3395 6.25 16.0004 6.25 14.5674V12.8578V10.7151V9.60361C6.25 8.30015 6.76953 7.07258 7.65625 6.25569L7.94531 5.99232C8.98047 5.04598 9.6875 3.71574 9.94531 2.23373L10.0352 1.72485C10.2383 0.564235 11.2266 -0.190162 12.2422 0.0419604ZM1.25 7.144H3.75C4.44141 7.144 5 7.78234 5 8.57245V18.5716C5 19.3617 4.44141 20 3.75 20H1.25C0.558594 20 0 19.3617 0 18.5716V8.57245C0 7.78234 0.558594 7.144 1.25 7.144Z" fill="black"/>
</svg>
